<svg width="17" height="17" viewBox="0 0 17 17" fill="none" xmlns="http://www.w3.org/2000/svg">
<path fill-rule="evenodd" clip-rule="evenodd" d="M8.49998 1.27271C4.50847 1.27271 1.27271 4.50847 1.27271 8.49998C1.27271 12.4915 4.50847 15.7273 8.49998 15.7273C12.4915 15.7273 15.7273 12.4915 15.7273 8.49998C15.7273 4.50847 12.4915 1.27271 8.49998 1.27271ZM0.272705 8.49998C0.272705 3.95618 3.95618 0.272705 8.49998 0.272705C13.0438 0.272705 16.7273 3.95618 16.7273 8.49998C16.7273 13.0438 13.0438 16.7273 8.49998 16.7273C3.95618 16.7273 0.272705 13.0438 0.272705 8.49998ZM8.49998 4.90907C8.77612 4.90907 8.99998 5.13293 8.99998 5.40907V7.99998H11.5909C11.867 7.99998 12.0909 8.22384 12.0909 8.49998C12.0909 8.77612 11.867 8.99998 11.5909 8.99998H8.99998V11.5909C8.99998 11.867 8.77612 12.0909 8.49998 12.0909C8.22384 12.0909 7.99998 11.867 7.99998 11.5909V8.99998H5.40907C5.13293 8.99998 4.90907 8.77612 4.90907 8.49998C4.90907 8.22384 5.13293 7.99998 5.40907 7.99998H7.99998V5.40907C7.99998 5.13293 8.22384 4.90907 8.49998 4.90907Z" fill="#070F2B"/>
</svg>
