<svg width="63" height="63" viewBox="0 0 63 63" fill="none" xmlns="http://www.w3.org/2000/svg">
<path d="M2 31.5C2 15.2076 15.2076 2 31.5 2C47.7924 2 61 15.2076 61 31.5C61 47.7924 47.7924 61 31.5 61C15.2076 61 2 47.7924 2 31.5Z" fill="#C8C7E0"/>
<path d="M2 31.5C2 15.2076 15.2076 2 31.5 2C47.7924 2 61 15.2076 61 31.5C61 47.7924 47.7924 61 31.5 61C15.2076 61 2 47.7924 2 31.5Z" stroke="#9290C3" stroke-opacity="0.5" stroke-width="4"/>
<path d="M2 31.5C2 15.2076 15.2076 2 31.5 2C47.7924 2 61 15.2076 61 31.5C61 47.7924 47.7924 61 31.5 61C15.2076 61 2 47.7924 2 31.5Z" stroke="#9290C3" stroke-width="4"/>
<path d="M31.5 41.5V21.5M21.5 31.5H41.5" stroke="#FDF8F8" stroke-width="3" stroke-linecap="round" stroke-linejoin="round"/>
<path d="M31.5 41.5V21.5M21.5 31.5H41.5" stroke="#FDF8F8" stroke-opacity="0.5" stroke-width="3" stroke-linecap="round" stroke-linejoin="round"/>
</svg>
