<svg width="16" height="17" viewBox="0 0 16 17" fill="none" xmlns="http://www.w3.org/2000/svg">
<path fill-rule="evenodd" clip-rule="evenodd" d="M13.1064 2.10441C13.2774 1.93345 13.5092 1.8374 13.751 1.8374C13.9928 1.8374 14.2247 1.93345 14.3956 2.10441C14.5666 2.27537 14.6626 2.50724 14.6626 2.74902C14.6626 2.99079 14.5666 3.22267 14.3956 3.39363L7.63655 10.1527L5.9176 10.5824L6.34733 8.86349L13.1064 2.10441ZM13.751 0.587402C13.1777 0.587402 12.6279 0.815143 12.2225 1.22052L5.34104 8.10201C5.26094 8.18211 5.20412 8.28247 5.17664 8.39237L4.45228 11.2898C4.39903 11.5028 4.46144 11.7281 4.61667 11.8834C4.77191 12.0386 4.99722 12.101 5.2102 12.0478L8.10767 11.3234C8.21756 11.2959 8.31792 11.2391 8.39802 11.159L15.2795 4.27751C15.6849 3.87213 15.9126 3.32231 15.9126 2.74902C15.9126 2.17572 15.6849 1.62591 15.2795 1.22052C14.8741 0.815143 14.3243 0.587402 13.751 0.587402ZM2.16114 2.12402C1.61115 2.12402 1.08369 2.34251 0.694785 2.73141C0.305884 3.12031 0.0874023 3.64777 0.0874023 4.19776V14.3389C0.0874023 14.8889 0.305884 15.4163 0.694785 15.8052C1.08369 16.1941 1.61115 16.4126 2.16114 16.4126H12.3023C12.8523 16.4126 13.3797 16.1941 13.7686 15.8052C14.1575 15.4163 14.376 14.8889 14.376 14.3389V9.26833C14.376 8.92315 14.0962 8.64333 13.751 8.64333C13.4058 8.64333 13.126 8.92315 13.126 9.26833V14.3389C13.126 14.5574 13.0392 14.7669 12.8847 14.9214C12.7303 15.0758 12.5207 15.1626 12.3023 15.1626H2.16114C1.94267 15.1626 1.73315 15.0758 1.57867 14.9214C1.42419 14.7669 1.3374 14.5574 1.3374 14.3389V4.19776C1.3374 3.97929 1.42419 3.76977 1.57867 3.61529C1.73315 3.46081 1.94267 3.37402 2.16114 3.37402H7.2317C7.57688 3.37402 7.8567 3.0942 7.8567 2.74902C7.8567 2.40385 7.57688 2.12402 7.2317 2.12402H2.16114Z" fill="#070F2B"/>
</svg>
