<svg width="15" height="13" viewBox="0 0 15 13" fill="none" xmlns="http://www.w3.org/2000/svg">
<path fill-rule="evenodd" clip-rule="evenodd" d="M1.68842 2.15485C1.79522 1.92957 2.02549 1.77188 2.28913 1.77188H12.6015C12.8652 1.77188 13.0954 1.92957 13.2022 2.15485L7.44532 6.18468L1.68842 2.15485ZM0.375086 2.44358V2.43593V2.44358ZM0.375086 2.44358V10.1702C0.375086 11.2244 1.23498 12.0843 2.28913 12.0843H12.6015C13.6557 12.0843 14.5156 11.2244 14.5156 10.1702V2.44361V2.43593M1.62509 3.63634L7.08691 7.45961C7.30211 7.61025 7.58853 7.61025 7.80373 7.45961L13.2656 3.63634V10.1702C13.2656 10.534 12.9653 10.8343 12.6015 10.8343H2.28913C1.92533 10.8343 1.62509 10.534 1.62509 10.1702V3.63634ZM0.375115 2.4253C0.380872 1.376 1.23852 0.521881 2.28913 0.521881H12.6015C13.6522 0.521881 14.5099 1.37616 14.5155 2.42559" fill="#070F2B"/>
</svg>
