<svg width="24" height="23" viewBox="0 0 24 23" fill="none" xmlns="http://www.w3.org/2000/svg">
<path d="M1.21875 21.9219C1.21875 19.8885 2.02649 17.9385 3.46426 16.5007C4.90204 15.0629 6.85209 14.2552 8.88542 14.2552C10.9187 14.2552 12.8688 15.0629 14.3066 16.5007C15.7443 17.9385 16.5521 19.8885 16.5521 21.9219H1.21875ZM8.88542 13.2969C5.70854 13.2969 3.13542 10.7238 3.13542 7.54688C3.13542 4.37 5.70854 1.79688 8.88542 1.79688C12.0623 1.79688 14.6354 4.37 14.6354 7.54688C14.6354 10.7238 12.0623 13.2969 8.88542 13.2969ZM15.9416 15.4368C17.4075 15.8136 18.7172 16.6432 19.6842 17.8076C20.6512 18.972 21.2263 20.4117 21.3275 21.9219H18.4688C18.4688 19.4206 17.5104 17.1436 15.9416 15.4368ZM14.0029 13.2557C14.806 12.5374 15.4482 11.6575 15.8875 10.6737C16.3268 9.68986 16.5533 8.62432 16.5521 7.54688C16.5543 6.23726 16.2193 4.94912 15.5794 3.8065C16.6648 4.02461 17.6412 4.61186 18.3427 5.46844C19.0441 6.32502 19.4273 7.39807 19.4271 8.50521C19.4272 9.18794 19.2814 9.86281 18.9995 10.4846C18.7175 11.1064 18.306 11.6608 17.7924 12.1106C17.2788 12.5604 16.675 12.8953 16.0214 13.0928C15.3679 13.2902 14.6797 13.3458 14.0029 13.2557Z" fill="#1A1A1A"/>
</svg>
