<svg width="25" height="23" viewBox="0 0 25 23" fill="none" xmlns="http://www.w3.org/2000/svg">
<path d="M1.71875 21.9219C1.71875 19.8885 2.52649 17.9385 3.96426 16.5007C5.40204 15.0629 7.35209 14.2552 9.38542 14.2552C11.4187 14.2552 13.3688 15.0629 14.8066 16.5007C16.2443 17.9385 17.0521 19.8885 17.0521 21.9219H1.71875ZM9.38542 13.2969C6.20854 13.2969 3.63542 10.7238 3.63542 7.54688C3.63542 4.37 6.20854 1.79688 9.38542 1.79688C12.5623 1.79688 15.1354 4.37 15.1354 7.54688C15.1354 10.7238 12.5623 13.2969 9.38542 13.2969ZM16.4416 15.4368C17.9075 15.8136 19.2172 16.6432 20.1842 17.8076C21.1512 18.972 21.7263 20.4117 21.8275 21.9219H18.9688C18.9688 19.4206 18.0104 17.1436 16.4416 15.4368ZM14.5029 13.2557C15.306 12.5374 15.9482 11.6575 16.3875 10.6737C16.8268 9.68986 17.0533 8.62432 17.0521 7.54688C17.0543 6.23726 16.7193 4.94912 16.0794 3.8065C17.1648 4.02461 18.1412 4.61186 18.8427 5.46844C19.5441 6.32502 19.9273 7.39807 19.9271 8.50521C19.9272 9.18794 19.7814 9.86281 19.4995 10.4846C19.2175 11.1064 18.806 11.6608 18.2924 12.1106C17.7788 12.5604 17.175 12.8953 16.5214 13.0928C15.8679 13.2902 15.1797 13.3458 14.5029 13.2557Z" fill="#1A1A1A"/>
</svg>
