<svg width="26" height="23" viewBox="0 0 26 23" fill="none" xmlns="http://www.w3.org/2000/svg">
<path d="M18.5521 7.54746C18.5529 6.99459 18.5007 6.4451 18.3972 5.9063C18.4565 5.96938 18.5138 6.03463 18.569 6.102C19.124 6.77982 19.4273 7.62893 19.4271 8.50501V8.50536C19.4272 9.04561 19.3118 9.57964 19.0887 10.0717C18.8656 10.5637 18.5399 11.0024 18.1335 11.3583C17.9104 11.5537 17.6659 11.7217 17.4051 11.8593C17.5496 11.6073 17.6817 11.3477 17.8006 11.0814C18.2972 9.96947 18.5532 8.76521 18.5521 7.54746ZM18.5521 7.54746C18.5521 7.54783 18.5521 7.5482 18.5521 7.54856L17.5521 7.54688L18.5521 7.54574C18.5521 7.54631 18.5521 7.54689 18.5521 7.54746ZM3.29415 20.9219C3.50623 19.5239 4.1593 18.2199 5.17137 17.2078C6.42161 15.9576 8.11731 15.2552 9.88542 15.2552C11.6535 15.2552 13.3492 15.9576 14.5995 17.2078C15.6115 18.2199 16.2646 19.5239 16.4767 20.9219H3.29415ZM9.88542 12.2969C7.26083 12.2969 5.13542 10.1715 5.13542 7.54688C5.13542 4.92228 7.26083 2.79688 9.88542 2.79688C12.51 2.79688 14.6354 4.92228 14.6354 7.54688C14.6354 10.1715 12.51 12.2969 9.88542 12.2969ZM20.4221 20.9219C20.3394 20.0403 20.1485 19.19 19.8629 18.3846C19.8803 18.4051 19.8977 18.4257 19.9149 18.4465C20.516 19.1702 20.9411 20.0174 21.1639 20.9219H20.4221Z" stroke="#070F2B" stroke-opacity="0.5" stroke-width="2"/>
</svg>
