<svg width="54" height="53" viewBox="0 0 54 53" fill="none" xmlns="http://www.w3.org/2000/svg">
<path fill-rule="evenodd" clip-rule="evenodd" d="M19.875 8.83317L13.25 4.4165L6.625 8.83317V41.9582C6.625 43.7152 7.32299 45.4003 8.56542 46.6428C9.80785 47.8852 11.4929 48.5832 13.25 48.5832H44.1667C45.9237 48.5832 47.6088 47.8852 48.8512 46.6428C50.0937 45.4003 50.7917 43.7152 50.7917 41.9582V35.3332H46.3773V35.3335H14.6553V37.5782V39.6446C14.6553 39.6446 14.7204 42.129 14.5532 42.6449C14.3859 43.1607 14.2998 43.2993 13.9719 43.5748C13.5803 43.9037 13.241 43.9889 12.7297 43.9889C12.2183 43.9889 11.9474 43.9331 11.4875 43.5748C11.2412 43.3829 11.0734 43.1607 10.8768 42.6449C10.8096 42.4687 10.7422 41.2168 10.7735 39.6446C10.8339 36.6146 10.8401 32.8092 10.8401 32.8092L46.375 32.7108V8.83317L39.75 4.4165L33.125 8.83317L26.5 4.4165L19.875 8.83317Z" fill="#070F2B"/>
<path d="M45.0001 39.3332C49.6025 39.3332 53.3334 35.6022 53.3334 30.9998C53.3334 26.3975 49.6025 22.6665 45.0001 22.6665C40.3977 22.6665 36.6667 26.3975 36.6667 30.9998C36.6667 35.6022 40.3977 39.3332 45.0001 39.3332Z" fill="#070F2B"/>
<path d="M45.0001 25.9998V30.9998L48.3334 32.6665" fill="#070F2B"/>
<path d="M45.0001 25.9998V30.9998L48.3334 32.6665M53.3334 30.9998C53.3334 35.6022 49.6025 39.3332 45.0001 39.3332C40.3977 39.3332 36.6667 35.6022 36.6667 30.9998C36.6667 26.3975 40.3977 22.6665 45.0001 22.6665C49.6025 22.6665 53.3334 26.3975 53.3334 30.9998Z" stroke="#FDF8F8" stroke-width="1.25" stroke-linecap="round" stroke-linejoin="round"/>
<path d="M45.0001 25.9998V30.9998L48.3334 32.6665M53.3334 30.9998C53.3334 35.6022 49.6025 39.3332 45.0001 39.3332C40.3977 39.3332 36.6667 35.6022 36.6667 30.9998C36.6667 26.3975 40.3977 22.6665 45.0001 22.6665C49.6025 22.6665 53.3334 26.3975 53.3334 30.9998Z" stroke="#FDF8F8" stroke-opacity="0.5" stroke-width="1.25" stroke-linecap="round" stroke-linejoin="round"/>
</svg>
