<svg width="54" height="53" viewBox="0 0 54 53" fill="none" xmlns="http://www.w3.org/2000/svg">
<path fill-rule="evenodd" clip-rule="evenodd" d="M19.875 8.83317L13.25 4.4165L6.625 8.83317V41.9582C6.625 43.7152 7.32299 45.4003 8.56542 46.6428C9.80785 47.8852 11.4929 48.5832 13.25 48.5832H44.1667C45.9237 48.5832 47.6088 47.8852 48.8512 46.6428C50.0937 45.4003 50.7917 43.7152 50.7917 41.9582V37L46.375 39.7498L41 38.5L39.75 36.2561L38 35.3332H15.4583V41.9582C15.4583 42.5439 15.2257 43.1056 14.8115 43.5197C14.3974 43.9338 13.8357 44.1665 13.25 44.1665C12.6643 44.1665 12.1026 43.9338 11.6885 43.5197C11.2743 43.1056 11.0417 42.5439 11.0417 41.9582V11.1961L13.25 9.72534L19.875 14.142L26.5 9.72534L33.125 14.142L39.75 9.72534L41.9583 11.1961L41.9583 22L46.375 22.0832V21.5V8.83317L39.75 4.4165L33.125 8.83317L26.5 4.4165L19.875 8.83317ZM46.375 39.7498V41.9582C46.375 42.5439 46.1423 43.1056 45.7282 43.5197C45.3141 43.9338 44.7524 44.1665 44.1667 44.1665H19.4996C19.7425 43.4753 19.875 42.7311 19.875 41.9582V39.7498H46.375Z" fill="#070F2B" fill-opacity="0.5"/>
<path d="M45.0001 25.9998V30.9998L48.3334 32.6665M53.3334 30.9998C53.3334 35.6022 49.6025 39.3332 45.0001 39.3332C40.3977 39.3332 36.6667 35.6022 36.6667 30.9998C36.6667 26.3975 40.3977 22.6665 45.0001 22.6665C49.6025 22.6665 53.3334 26.3975 53.3334 30.9998Z" stroke="#828492" stroke-width="1.25" stroke-linecap="round" stroke-linejoin="round"/>
</svg>
