<svg width="40" height="42" viewBox="0 0 40 42" fill="none" xmlns="http://www.w3.org/2000/svg">
<path d="M40 39.758C40 40.3526 39.7659 40.9229 39.3491 41.3433C38.9324 41.7638 38.3671 42 37.7778 42H2.22222C1.63285 42 1.06762 41.7638 0.650874 41.3433C0.234127 40.9229 5.34912e-07 40.3526 5.34912e-07 39.758V16.1952C-0.000234408 15.8535 0.0769271 15.5163 0.225591 15.2094C0.374255 14.9024 0.590489 14.6338 0.857778 14.424L18.6356 0.472366C19.0257 0.166217 19.5058 0 20 0C20.4942 0 20.9743 0.166217 21.3644 0.472366L39.1422 14.424C39.4095 14.6338 39.6257 14.9024 39.7744 15.2094C39.9231 15.5163 40.0002 15.8535 40 16.1952V39.758ZM35.5556 37.5161V17.2892L20 5.08406L4.44445 17.2892V37.5161H35.5556ZM8.88889 28.5483H31.1111V33.0322H20H8.88889V28.5483Z" fill="#070F2B" fill-opacity="0.5"/>
</svg>
