<svg width="13" height="15" viewBox="0 0 13 15" fill="none" xmlns="http://www.w3.org/2000/svg">
<path fill-rule="evenodd" clip-rule="evenodd" d="M4.40454 3.84972C4.40454 2.63854 5.35763 1.68404 6.50002 1.68404C7.64241 1.68404 8.5955 2.63854 8.5955 3.84972C8.5955 5.06089 7.64241 6.01539 6.50002 6.01539C5.35763 6.01539 4.40454 5.06089 4.40454 3.84972ZM6.50002 0.434043C4.63745 0.434043 3.15454 1.9784 3.15454 3.84972C3.15454 5.72104 4.63745 7.26539 6.50002 7.26539C8.36259 7.26539 9.8455 5.72104 9.8455 3.84972C9.8455 1.9784 8.36259 0.434043 6.50002 0.434043ZM3.77953 8.80606C2.88704 8.80606 2.03443 9.1699 1.40833 9.81216C0.782753 10.4539 0.434052 11.3209 0.434052 12.2217V13.6171C0.434052 13.9623 0.713874 14.2421 1.05905 14.2421C1.40423 14.2421 1.68405 13.9623 1.68405 13.6171V12.2217C1.68405 11.6423 1.90859 11.0897 2.3034 10.6847C2.69767 10.2803 3.22899 10.0561 3.77953 10.0561H9.22049C9.77103 10.0561 10.3023 10.2803 10.6966 10.6847C11.0914 11.0897 11.316 11.6423 11.316 12.2217V13.6171C11.316 13.9623 11.5958 14.2421 11.941 14.2421C12.2861 14.2421 12.566 13.9623 12.566 13.6171V12.2217C12.566 11.3209 12.2173 10.4539 11.5917 9.81216C10.9656 9.1699 10.113 8.80606 9.22049 8.80606H3.77953Z" fill="#070F2B"/>
</svg>
