<svg width="12" height="9" viewBox="0 0 12 9" fill="none" xmlns="http://www.w3.org/2000/svg">
<path fill-rule="evenodd" clip-rule="evenodd" d="M1.47077 4.23413C1.42515 4.16627 1.38473 4.10381 1.3496 4.04799C1.38473 3.99218 1.42515 3.92972 1.47077 3.86185C1.6712 3.56372 1.96802 3.16731 2.35282 2.77301C3.13206 1.97452 4.20546 1.25 5.52436 1.25C6.84327 1.25 7.91667 1.97452 8.69591 2.77301C9.0807 3.16731 9.37753 3.56372 9.57795 3.86185C9.62358 3.92972 9.664 3.99218 9.69912 4.04799C9.664 4.1038 9.62358 4.16627 9.57795 4.23413C9.37753 4.53227 9.0807 4.92867 8.69591 5.32297C7.91667 6.12147 6.84327 6.84598 5.52436 6.84598C4.20546 6.84598 3.13206 6.12147 2.35282 5.32297C1.96802 4.92867 1.6712 4.53227 1.47077 4.23413ZM10.9779 3.75901C10.978 3.75923 10.9781 3.75944 10.4237 4.04799C10.9781 4.33655 10.978 4.33675 10.9779 4.33697L10.9776 4.33748L10.977 4.33873L10.9752 4.34217L10.9696 4.35272L10.9504 4.38799C10.9341 4.41758 10.9107 4.45911 10.8804 4.51088C10.8199 4.61433 10.7312 4.75913 10.6153 4.93154C10.3843 5.27522 10.0408 5.73456 9.59051 6.19601C8.69952 7.10901 7.32324 8.09598 5.52436 8.09598C3.72549 8.09598 2.34921 7.10901 1.45821 6.19601C1.00789 5.73456 0.664454 5.27522 0.433405 4.93154C0.317502 4.75913 0.228872 4.61433 0.168298 4.51088C0.137987 4.45911 0.11463 4.41758 0.098328 4.38799L0.0791555 4.35272L0.0735462 4.34217L0.0717389 4.33873L0.0710849 4.33748L0.0708205 4.33697C0.0707056 4.33675 0.0705977 4.33655 0.625 4.04799C0.0705977 3.75944 0.0707056 3.75923 0.0708205 3.75901L0.0710849 3.7585L0.0717389 3.75725L0.0735462 3.75382L0.0791555 3.74327L0.098328 3.708C0.11463 3.6784 0.137987 3.63687 0.168298 3.58511C0.228872 3.48165 0.317502 3.33685 0.433405 3.16445C0.664454 2.82077 1.00789 2.36143 1.45821 1.89998C2.34921 0.986977 3.72549 0 5.52436 0C7.32324 0 8.69952 0.986977 9.59051 1.89998C10.0408 2.36143 10.3843 2.82077 10.6153 3.16445C10.7312 3.33685 10.8199 3.48165 10.8804 3.58511C10.9107 3.63687 10.9341 3.6784 10.9504 3.708L10.9696 3.74327L10.9752 3.75382L10.977 3.75725L10.9776 3.7585L10.9779 3.75901ZM10.4237 4.04799L10.9781 3.75944C11.0723 3.94029 11.0723 4.15569 10.9781 4.33655L10.4237 4.04799ZM0.0705977 3.75944L0.625 4.04799L0.0705977 4.33655C-0.0235326 4.15569 -0.0235326 3.94029 0.0705977 3.75944ZM4.81318 4.04799C4.81318 3.70765 5.10771 3.38937 5.52437 3.38937C5.94102 3.38937 6.23556 3.70765 6.23556 4.04799C6.23556 4.38834 5.94102 4.70662 5.52437 4.70662C5.10771 4.70662 4.81318 4.38834 4.81318 4.04799ZM5.52437 2.13937C4.46511 2.13937 3.56318 2.97049 3.56318 4.04799C3.56318 5.1255 4.46511 5.95662 5.52437 5.95662C6.58362 5.95662 7.48556 5.1255 7.48556 4.04799C7.48556 2.97049 6.58362 2.13937 5.52437 2.13937Z" fill="black"/>
</svg>
