<svg width="13" height="14" viewBox="0 0 13 14" fill="none" xmlns="http://www.w3.org/2000/svg">
<path fill-rule="evenodd" clip-rule="evenodd" d="M4.80901 2.40901C5.23097 1.98705 5.80326 1.75 6.4 1.75C6.99674 1.75 7.56903 1.98705 7.99099 2.40901C8.41295 2.83097 8.65 3.40326 8.65 4V5.65H4.15V4C4.15 3.40326 4.38705 2.83097 4.80901 2.40901ZM2.65 5.65V4C2.65 3.00544 3.04509 2.05161 3.74835 1.34835C4.45161 0.645088 5.40544 0.25 6.4 0.25C7.39456 0.25 8.34839 0.645088 9.05165 1.34835C9.75491 2.05161 10.15 3.00544 10.15 4V5.65H10.6C11.677 5.65 12.55 6.52304 12.55 7.6V11.8C12.55 12.877 11.677 13.75 10.6 13.75H2.2C1.12304 13.75 0.25 12.877 0.25 11.8V7.6C0.25 6.52304 1.12304 5.65 2.2 5.65H2.65ZM9.4 7.15H3.4L2.2 7.15C1.95147 7.15 1.75 7.35147 1.75 7.6V11.8C1.75 12.0485 1.95147 12.25 2.2 12.25H10.6C10.8485 12.25 11.05 12.0485 11.05 11.8V7.6C11.05 7.35147 10.8485 7.15 10.6 7.15L9.4 7.15Z" fill="#070F2B"/>
</svg>
