<svg width="12" height="12" viewBox="0 0 12 12" fill="none" xmlns="http://www.w3.org/2000/svg">
<path fill-rule="evenodd" clip-rule="evenodd" d="M1.44194 0.704939C1.19786 0.460862 0.802136 0.460862 0.558058 0.704939C0.313981 0.949017 0.313981 1.34475 0.558058 1.58882L2.28244 3.3132C1.5427 3.98071 0.922068 4.77186 0.449278 5.65295C0.353257 5.8319 0.350163 6.04634 0.440983 6.22798L1 5.94847C0.440983 6.22798 0.441086 6.22818 0.441195 6.2284L0.441447 6.2289L0.442074 6.23015L0.443817 6.2336L0.449258 6.24425L0.467931 6.28001C0.483829 6.31005 0.506637 6.35227 0.536258 6.40493C0.595453 6.51017 0.682133 6.65759 0.795536 6.83318C1.02157 7.18316 1.35782 7.65137 1.799 8.12196C2.66996 9.05099 4.02412 10.0655 5.80159 10.0655V10.0656L5.8118 10.0654C6.69875 10.0509 7.56259 9.80185 8.31724 9.348L10.1612 11.192C10.4053 11.4361 10.801 11.4361 11.0451 11.192C11.2892 10.9479 11.2892 10.5522 11.0451 10.3081L8.84261 8.10561C8.83815 8.10101 8.83363 8.09649 8.82905 8.09205L7.17137 6.43437C7.16994 6.43292 7.16849 6.43148 7.16704 6.43004L5.31996 4.58296C5.31856 4.58154 5.31715 4.58014 5.31574 4.57873L3.65687 2.91986C3.65242 2.91528 3.64792 2.91078 3.64337 2.90636L1.44194 0.704939ZM3.16768 4.19845C2.59759 4.704 2.10834 5.29456 1.71745 5.94957C1.75403 6.01042 1.79678 6.07945 1.84559 6.15502C2.04242 6.4598 2.33365 6.86461 2.71092 7.26704C3.47585 8.08296 4.52072 8.81359 5.7965 8.81553C6.35496 8.80564 6.9011 8.67192 7.39681 8.42758L6.6649 7.69566C6.62929 7.71427 6.59306 7.73179 6.55626 7.74819C6.31896 7.85392 6.0628 7.91077 5.80305 7.91536C5.5433 7.91994 5.28529 7.87216 5.04441 7.77486C4.80352 7.67757 4.58471 7.53275 4.40101 7.34905C4.21731 7.16535 4.07249 6.94653 3.97519 6.70565C3.8779 6.46477 3.83012 6.20676 3.8347 5.94701C3.83928 5.68726 3.89614 5.43109 4.00187 5.19379C4.01827 5.15699 4.03578 5.12077 4.05439 5.08516L3.16768 4.19845ZM5.10123 6.13199C5.10934 6.16791 5.12036 6.2032 5.13422 6.2375C5.16865 6.32274 5.21989 6.40016 5.28489 6.46516C5.34989 6.53017 5.42732 6.58141 5.51255 6.61584C5.54686 6.62969 5.58215 6.64071 5.61806 6.64883L5.10123 6.13199ZM5.02737 3.16972C5.28066 3.11043 5.53998 3.08079 5.80012 3.0814L5.80159 3.0814C7.07967 3.0814 8.12631 3.8129 8.89225 4.6299C9.26952 5.03232 9.56075 5.43713 9.75759 5.74191C9.80655 5.81773 9.84943 5.88696 9.88608 5.94796C9.67888 6.2966 9.44346 6.62791 9.18209 6.93853C8.95985 7.20264 8.9938 7.59691 9.25791 7.81915C9.52203 8.04139 9.9163 8.00745 10.1385 7.74333C10.5284 7.27997 10.8689 6.77717 11.1544 6.2431C11.2499 6.06431 11.2529 5.85028 11.1622 5.66896L10.6032 5.94847C11.1622 5.66896 11.1621 5.66876 11.162 5.66854L11.1617 5.66803L11.1611 5.66679L11.1594 5.66334L11.1539 5.65268L11.1352 5.61693C11.1193 5.58688 11.0965 5.54466 11.0669 5.49201C11.0077 5.38677 10.921 5.23935 10.8076 5.06376C10.5816 4.71377 10.2454 4.24557 9.80417 3.77497C8.93333 2.84607 7.57943 1.83168 5.80232 1.8314L5.80306 1.83141L5.80159 2.4564V1.8314L5.80232 1.8314C5.44554 1.83062 5.08987 1.8713 4.74247 1.95262C4.40638 2.03129 4.1977 2.36752 4.27637 2.70361C4.35504 3.03971 4.69127 3.24839 5.02737 3.16972Z" fill="black"/>
</svg>
