<svg width="360" height="800" viewBox="0 0 360 800" fill="none" xmlns="http://www.w3.org/2000/svg">
<g filter="url(#filter0_f_1273_5927)">
<path d="M128.58 136.069C1016.06 309.847 -75.9392 -423.534 -115.859 -304.95C-155.778 -186.365 59.4991 -167.673 -114.645 0.686375C-288.789 169.045 -184.153 273.329 128.58 136.069Z" fill="#070F2B"/>
</g>
<g filter="url(#filter1_f_1273_5927)">
<path d="M323.53 -112.69C252.631 -265.389 -78.3379 -40.4094 2.33098 17.5453C82.9999 75.5 -12.5001 -57 226.756 27.9177C466.013 112.835 409.811 57.3084 323.53 -112.69Z" fill="#AF89CE"/>
</g>
<g filter="url(#filter2_f_1273_5927)">
<path d="M254.077 -64.5149C188.838 137.755 710.085 94.3689 646.417 1.04408C582.749 -92.2808 487.362 7.25564 442.22 -185.811C397.079 -378.878 283.051 -309.965 254.077 -64.5149Z" fill="#A8D5C5"/>
</g>
<g filter="url(#filter3_f_1273_5927)">
<path d="M-123.577 926.407C-384.873 860.955 33.0188 879.929 -46.4744 770.983C-119.665 670.676 282.478 866.724 566.548 707.839C613.986 674.031 652.522 643.931 674.383 626.323C702.415 602.572 698.803 606.654 674.383 626.323C665.325 633.998 652.963 644.578 636.933 658.477C614.599 677.84 591.011 694.156 566.548 707.839C442.637 796.146 257.988 909.754 151.134 892.116C-57.0895 857.747 -37.5387 933.874 -123.577 926.407Z" fill="#535C91"/>
</g>
<g filter="url(#filter4_f_1273_5927)">
<path d="M109.774 793.93C-639.739 405.565 157.884 1394.47 221.915 1287.61C285.946 1180.75 98.5083 1109.62 294.14 986.684C489.771 863.75 421.499 735.539 109.774 793.93Z" fill="#070F2B"/>
</g>
<defs>
<filter id="filter0_f_1273_5927" x="-253.524" y="-372.997" width="783.747" height="627.452" filterUnits="userSpaceOnUse" color-interpolation-filters="sRGB">
<feFlood flood-opacity="0" result="BackgroundImageFix"/>
<feBlend mode="normal" in="SourceGraphic" in2="BackgroundImageFix" result="shape"/>
<feGaussianBlur stdDeviation="27.5" result="effect1_foregroundBlur_1273_5927"/>
</filter>
<filter id="filter1_f_1273_5927" x="-65.2483" y="-219.924" width="517.95" height="342.099" filterUnits="userSpaceOnUse" color-interpolation-filters="sRGB">
<feFlood flood-opacity="0" result="BackgroundImageFix"/>
<feBlend mode="normal" in="SourceGraphic" in2="BackgroundImageFix" result="shape"/>
<feGaussianBlur stdDeviation="27.5" result="effect1_foregroundBlur_1273_5927"/>
</filter>
<filter id="filter2_f_1273_5927" x="193.414" y="-352.236" width="513.407" height="486.506" filterUnits="userSpaceOnUse" color-interpolation-filters="sRGB">
<feFlood flood-opacity="0" result="BackgroundImageFix"/>
<feBlend mode="normal" in="SourceGraphic" in2="BackgroundImageFix" result="shape"/>
<feGaussianBlur stdDeviation="27.5" result="effect1_foregroundBlur_1273_5927"/>
</filter>
<filter id="filter3_f_1273_5927" x="-310.629" y="510.005" width="1104.7" height="516.921" filterUnits="userSpaceOnUse" color-interpolation-filters="sRGB">
<feFlood flood-opacity="0" result="BackgroundImageFix"/>
<feBlend mode="normal" in="SourceGraphic" in2="BackgroundImageFix" result="shape"/>
<feGaussianBlur stdDeviation="50" result="effect1_foregroundBlur_1273_5927"/>
</filter>
<filter id="filter4_f_1273_5927" x="-264.259" y="648.067" width="723.229" height="702.671" filterUnits="userSpaceOnUse" color-interpolation-filters="sRGB">
<feFlood flood-opacity="0" result="BackgroundImageFix"/>
<feBlend mode="normal" in="SourceGraphic" in2="BackgroundImageFix" result="shape"/>
<feGaussianBlur stdDeviation="27.5" result="effect1_foregroundBlur_1273_5927"/>
</filter>
</defs>
</svg>
